<?xml version="1.0"?>
<svg version="1.1" xmlns="http://www.w3.org/2000/svg" width="230" height="50" style=""><path fill="#1265ff" d="M24.984,21.672q-3.584,0-6.016,2.592q-2.4,2.56-2.4,6.24l0,13.696l2.016,0l0-10.048l12.864,0l0,10.048l2.016,0l0-13.696q0-3.68-2.4-6.24q-2.496-2.592-6.08-2.592z M31.448,32.168l-12.864,0l0-1.664q0-2.752,1.856-4.768q1.888-2.048,4.544-2.048t4.608,2.048q1.856,2.016,1.856,4.768l0,1.664z M56.40288,21.768l-2.016,0l0,13.664q0,2.944-2.048,4.928q-2.016,1.92-4.8,1.92q-3.04,0-4.896-1.92q-1.888-1.952-1.888-4.928l0-13.664l-2.048,0l0,13.664q0,3.648,2.496,6.208q2.528,2.624,6.336,2.624q3.552,0,6.24-2.624q2.624-2.56,2.624-6.208l0-13.664z M77.64576,21.8l-17.344,0l0,1.952l7.872,0l0,20.512l1.984,0l0-20.512l7.488,0l0-1.952z M90.28064,21.8q-3.616,0-6.208,2.592q-2.624,2.624-2.624,6.24l0,4.832q0,3.552,2.624,6.176t6.208,2.624q3.616,0,6.24-2.624q2.592-2.592,2.592-6.176l0-4.832q0-3.648-2.592-6.24t-6.24-2.592z M97.12864,30.632l0,4.832q0,2.912-2.048,4.896q-2.016,1.92-4.8,1.92t-4.768-1.92q-2.048-1.984-2.048-4.896l0-4.832q0-2.688,2.048-4.8q2.048-2.048,4.768-2.048q2.688,0,4.8,2.048q2.048,2.112,2.048,4.8z M106.30752,23.752l15.264,0l0-1.984l-17.248,0l0,0.384l0,22.048l1.984,0l0-9.984l8.096,0l0-2.08l-8.096,0l0-8.384z M133.6624,21.672q-3.584,0-6.016,2.592q-2.4,2.56-2.4,6.24l0,13.696l2.016,0l0-10.048l12.864,0l0,10.048l2.016,0l0-13.696q0-3.68-2.4-6.24q-2.496-2.592-6.08-2.592z M140.1264,32.168l-12.864,0l0-1.664q0-2.752,1.856-4.768q1.888-2.048,4.544-2.048t4.608,2.048q1.856,2.016,1.856,4.768l0,1.664z M156.76128,32.968l2.4,0q2.432,0,4.032-1.6t1.6-4.032q0-2.144-1.6-3.84q-1.696-1.76-4.032-1.76l-10.016,0l-1.984,0l0,22.464l1.984,0l0-11.232l5.216,0l6.816,11.232l2.4,0z M149.14528,30.984l0-7.232l10.016,0q1.472,0,2.592,1.056q1.056,1.056,1.056,2.528q0,1.536-1.056,2.592q-1.12,1.056-2.592,1.056l-10.016,0z M169.49216,44.136l1.984,0l0-13.536q0-2.688,2.048-4.736t4.736-2.048q2.624,0,4.736,2.048q2.016,2.016,2.016,4.736l0,13.536l2.048,0l0-13.536q0-2.752,2.048-4.736q2.048-2.048,4.704-2.048q2.688,0,4.736,2.048t2.048,4.736l0,13.536l1.984,0l0-13.536q0-3.648-2.56-6.208t-6.208-2.56q-2.4,0-4.512,1.312q-2.144,1.344-3.072,3.424q-1.248-2.144-3.36-3.424q-2.208-1.312-4.608-1.312q-3.616,0-6.176,2.56q-2.592,2.592-2.592,6.208l0,13.536z"/><path fill="#" d=""/></svg>
